<?xml version="1.0" encoding="utf-8"?>
<!-- Generator: Adobe Illustrator 22.1.0, SVG Export Plug-In . SVG Version: 6.00 Build 0)  -->
<svg version="1.1" id="Ebene_1" xmlns="http://www.w3.org/2000/svg" xmlns:xlink="http://www.w3.org/1999/xlink" x="0px" y="0px"
	 viewBox="0 0 1536 512" style="enable-background:new 0 0 1536 512;" xml:space="preserve">
<style type="text/css">
	.st0{fill:#1C1C1C;}
</style>
<g>
	<path class="st0" d="M535.7,263.5c1.2-0.5,2.1-0.8,3-1.1c0.8-0.2,1.6-0.5,2.2-0.8c5-1.4,9.3-2.8,13-4c3.7-1.3,6.8-2.3,9.3-3.1
		l11.2-3.6c0.8-0.3,2.1-0.5,4-0.5c2.3,0,4.2,0.6,5.7,1.9c1.2,0.5,1.8,1.2,2,2.1c0.5,0.8,0.6,1.5,0.2,2.1c-0.3,0.6-0.9,0.9-1.7,0.9
		h-0.2c-0.5-0.2-1.2-0.2-2.2-0.2c-1.3,0-2.7,0.3-4.2,0.8c-1.5,0.6-2.6,0.9-3.2,1.1c-16.4,5.7-29.8,10.2-40.2,13.5
		c-4.1,1.4-7.5,4-10.2,7.8c-19.2,27.4-41.5,50.1-66.8,68.1c-9.3,6.5-17.5,10.5-24.6,12.1c-2.6,0.6-5.5,1-8.7,1
		c-6.5,0-12-1.7-16.6-5.2c-4.5-2.7-6.7-6.2-6.7-10.4c0-1.4,0.2-2.9,0.7-4.5c0.8-4.3,3.1-8.8,7-13.5l4.5-5c-2-5.5-3-11.6-3-18.3
		c0-4.1,0.5-10,1.5-17.6c2.3-15.8,5.5-31.3,9.6-46.5s9.6-34.4,16.5-57.7c0.8-2.7,1.4-4.4,1.7-5.2c5.5-18.2,10.6-32.9,15.4-44.2
		c1.7-4,3.9-8.6,6.7-14l1.2-3.3c-0.7,0.2-1.2,0.3-1.6,0.5s-0.8,0.3-1.1,0.5c-14.7,7.6-26.8,18-36.2,31.3c-0.7,0.9-1.5,2.4-2.4,4.3
		c-0.9,1.9-1.7,3.5-2.4,4.7c-3-0.3-5.5-1.6-7.6-3.8s-3.1-4.8-3.1-7.8c0-0.5,0.2-1.5,0.5-3.1c1.7-6.5,4.9-12.8,9.7-19
		c9.9-12.7,23.8-23.3,41.7-31.8c15.2-7.1,30.9-10.7,46.9-10.7c9.8,0,19,2,27.8,6.1c8.8,4,16.3,9.5,22.5,16.5s10.6,14.7,13,23.3
		c2,6.3,3,13.6,3,21.8c0,2.4-0.2,5.9-0.5,10.7c-2.8,28.8-13,59.2-30.5,91.2L535.7,263.5z M474.1,299.3
		c-14.9,7.3-28.6,16.1-41.2,26.6c0.3,2.5,0.5,4,0.5,4.5c0,1.7-0.4,2.9-1.1,3.6c-0.7,0.6-2,1-3.8,1l-3.2-0.2c-2,2.2-3.4,4.1-4.2,5.7
		c-0.8,1.6-1.4,3.6-1.7,6.2C439.4,336,457.7,320.2,474.1,299.3z M431.1,308.3l1,0.5c0.7,0,1.2-0.2,1.7-0.7
		c16.4-10.4,34.1-19.5,53.1-27.1c1.2-0.5,2.1-1.1,2.9-1.8c0.7-0.7,1.4-1.5,2.1-2.5c9.1-13.1,17.6-28.4,25.6-45.8
		c13.7-28.5,22.9-54.1,27.6-76.7c1.7-10.1,2.5-17.6,2.5-22.6c0-4.1-0.3-7.8-1-11.2c-0.8-4.6-1.8-8-2.9-10.1
		c-1.1-2.1-2.6-3.7-4.7-4.7c-2.1-1-5.5-2-10.3-3c-4-1.1-8.4-1.7-13.2-1.7c-5.6,0-11.5,0.6-17.6,1.9c-7.6,1.3-15.6,3.8-24.1,7.6
		c3.8,1.7,6.5,3,7.9,3.8c2,1.1,3.4,2.3,4.2,3.6c0.8,1.3,1.2,2.8,1.2,4.5c0,1.3-0.1,2.3-0.2,3.1c-0.2,1.4-0.6,3.2-1.2,5.5
		c-2,5.7-3.6,10.6-5,14.7c-2,6-4.4,12.7-7.2,20.2c-14.1,36.3-26.4,74.5-37,114.7C435.3,286.7,433.4,296,431.1,308.3z"/>
	<path class="st0" d="M669.7,281.7c3.8-1.9,6.1-3.1,7-3.6c7.3-4.9,14.2-11.6,20.9-19.9c1.7-2.2,3.6-3.3,5.7-3.3
		c1.3,0,2.7,0.3,4.2,0.9c0,0.2,0,0.4,0.1,0.7s0,0.6-0.1,0.7c-4.1,6.5-8.4,12-12.9,16.6s-9.8,8.2-15.9,10.9
		c-3.1,1.6-6.5,2.8-10.2,3.6c-1.5,0.3-2.6,0.8-3.5,1.5c-0.8,0.7-1.8,1.9-3,3.4c-0.7,1.1-2.3,3.6-4.8,7.4c-2.6,3.8-5.2,7.1-7.8,10
		c-9.8,11.2-21.8,16.9-36,16.9c-6.3,0-11.8-0.9-16.5-2.7c-4.7-1.8-9.1-4.8-13-8.9c-5.3-5.2-9.1-11-11.3-17.5s-3.4-13.7-3.4-21.7
		c0-15.4,3.8-30.1,11.4-44.2c0.5-1,0.7-2.7,0.7-5.2c-0.3-14.7,4.1-27.5,13.2-38.2c9.9-11.4,21.5-18,34.8-19.7
		c3.1-0.5,6.3-0.7,9.4-0.7c16.5,0,29.8,6.9,39.7,20.7c5.5,8.2,8.2,17.3,8.2,27.1c0,9.7-1.3,19.1-4,28.4c-2.6,9.3-6.5,19.9-11.7,31.9
		c-0.3,0.6-0.6,1.3-0.9,2c-0.2,0.7-0.6,1.5-1.1,2.3L669.7,281.7z M602.2,271.5c0,0.2-0.3,0.6-1,1.2c-1,5.2-1.5,10.4-1.5,15.4
		c0,1.9,0.2,4.7,0.5,8.5c0.3,6.8,2.8,12.8,7.4,18c3,3.2,5.9,4.7,8.7,4.7c1.8,0,3.8-0.5,6-1.4c5.8-2.2,10.5-5.4,14.2-9.5
		c3.6-4.1,7.9-10.1,12.9-18C631.5,289.1,615.8,282.8,602.2,271.5z M601.2,220.7l5.2,1l4.5,1.2c2.3,1.3,3.5,2.5,3.5,3.8
		c0,0.6-0.2,1.6-0.7,2.8l-2.5,7.1l-5.2,15c-0.5,1.9-0.1,3.8,1.2,5.7c10.8,16,25.9,24.9,45.4,26.8l2-3.1c6.8-14.7,11.3-28,13.4-39.9
		c1.2-7,1.7-12.7,1.7-17.3s-0.4-8.5-1.2-11.9c-1.5-6.8-3.8-12.7-6.8-17.8c-3.1-5.1-7.5-9.2-13.3-12.3c-3-1.9-5.9-2.8-8.7-2.8
		c-2.3,0-4.9,0.7-7.7,2.1C616.1,188.7,605.8,201.9,601.2,220.7z"/>
	<path class="st0" d="M850,254.4c-0.3,0.5-0.6,1-0.7,1.4c-0.2,0.5-0.5,1-1,1.4l-7.4,7.6c-14.9,15-25.1,25-30.5,29.9l-12.9,11.4
		c-7.3,6-13.2,11.4-17.9,16.1c-7.8,7.9-16.7,13.1-26.8,15.7c-3.3,0.9-5.9,1.4-7.7,1.4c-0.8,0-2.1-0.2-3.7-0.5
		c-2.8-0.3-4.2-1.3-4.2-3.1c0-0.5,0.3-1.1,0.9-1.9c0.6-0.8,1.2-1.3,1.9-1.7c0.3-0.3,2-1.3,5-2.8c2.3-1.3,4.4-2.5,6.2-3.8
		c9.8-7,18.5-17,26.1-30.2c9.1-16,15.5-33.7,19.1-53.2c0.3-2.2,0.5-3.9,0.5-5c0.7-4.4,1-7.8,1-10c0-2.8-0.4-6-1.2-9.5
		c-0.2-1.3-0.9-3.6-2.2-7.1c-3.3,0.9-6.4,2.9-9.2,5.9c-5,6.2-8.2,10.4-9.7,12.8c-4.6,7.6-8.9,15.5-12.7,23.7s-8.1,18.1-12.9,29.7
		l-3.2,7.6c-5.1,12.2-9.6,24.8-13.3,37.9s-7.4,27.7-11,43.8l-6,28.7c-2.6,12.7-4.7,22.2-6.2,28.5c-0.5,0.9-0.7,2.1-0.7,3.3
		c-1,5.2-4.5,8.2-10.4,9c-0.5,0.2-1.3,0.2-2.5,0.2c-4,0-7.3-1.9-9.9-5.7c-3-3.8-4.9-9-5.7-15.7c-0.7-4-1-8.5-1-13.8
		c0-4.6,0.2-9.3,0.7-14c1-8.2,1.7-14.7,2-19.5c1.8-16.8,3.1-28.7,4-35.9c1.2-10,3.1-24.9,5.7-44.9c3.8-24.5,8.7-47.3,14.6-68.4
		l2.2-5.9c1.3-3.5,3.7-5.1,7.2-4.7c2.6,0,5.5,0.6,8.7,1.7c2,0.5,3.5,1.4,4.6,2.8c1.1,1.4,1.6,3.2,1.6,5.2l-0.7,11.2
		c-0.3,6.3-0.7,11.2-1,14.7c-1,10.1-2.8,24.1-5.5,42c-0.5,2.5-1.1,6.3-1.7,11.4l-1.5,10c-0.3,2.2-0.8,5-1.4,8.3
		c-0.6,3.3-1.1,7.2-1.6,11.6l-0.2,2.4c0,0.5,0.2,1.2,0.5,2.1l6.2-21.6c5-16.3,9.9-31.1,14.9-44.3c5-13.2,10.7-25.8,17.1-37.9
		c3.6-6.3,7.8-12.4,12.4-18.3c6.6-8.4,15.3-12.6,26.1-12.6c10.9,0,18.3,5.1,22.1,15.4c1.8,4.4,3,9.6,3.5,15.4
		c0.5,16.1-3,32.2-10.4,48.2c-0.2,0.3-0.5,0.9-0.9,1.8s-0.6,1.9-0.6,3.2c6.1-5.1,11.3-9.7,15.4-13.8c3.6-3.5,8.9-9,15.9-16.6
		c2-2.1,3.9-3.1,5.7-3.1C846.7,253,848.3,253.5,850,254.4z"/>
	<path class="st0" d="M898.1,268.4l-4,5.2c-3,3.8-6,7.9-9.2,12.3l-4.5,6.4c-3.3,5.2-7.3,10.8-11.9,16.6c-5.5,6.8-9.9,12-13.4,15.7
		c-3.6,3.5-7.3,5.2-10.9,5.2c-1.2,0-2.1-0.1-2.7-0.2c-7.8-1.9-12.7-5.7-14.9-11.4c-1.8-4.4-2.7-9.4-2.7-15c0-6.3,1-12.6,3.1-18.8
		c2.1-6.2,4.9-12.7,8.6-19.7c7.6-14.7,17.5-28.9,29.5-42.5c6.8-7.9,13.7-13.5,20.6-16.6c4.6-2.2,8.9-3.3,12.9-3.3
		c5.1,0,10.2,1.7,15.1,5c3.8,2.8,7.2,5.7,10.2,8.5c2.5,2.8,3.5,5.6,3,8.3c0,1.3-0.3,2.3-0.9,3c-0.6,0.7-1.4,1.1-2.4,1.1
		c-0.8,0-1.6-0.2-2.2-0.7c-1.3-0.6-3.1-2.3-5.2-5c-1.3-1.9-2.4-3.3-3.4-4.2c-0.9-0.9-1.9-1.3-3.1-1.3c-1.7,0-3.9,0.8-6.7,2.4
		c-5,2.8-9.8,7.1-14.6,12.8c-19.7,21.8-33.4,45.7-41,71.5c-0.8,2.5-1.6,5.1-2.2,7.8c0.7-0.5,1.4-0.9,2.1-1.3
		c0.7-0.4,1.2-0.8,1.4-1.1c7.1-7.6,12.7-14.1,16.9-19.5l39.2-47.3c0.5-0.6,1.3-1.5,2.4-2.5c1.1-1,1.9-1.9,2.4-2.7
		c1.2-1.9,3.1-2.8,6-2.8h1.5c3.6,0.8,6.6,2.3,8.8,4.6s3.4,5.2,3.4,8.7c0,5.4-0.6,10.3-1.7,14.7c-4.8,19-9.4,35.4-13.9,49.2
		c-1.3,4.9-3.1,10-5.2,15.3c-2.2,5.3-3.5,8.7-4,10.1c-0.2,0.8-0.2,2-0.2,3.6v1.7l2.7-4.7c12.2-25.6,21.5-44.9,27.8-57.7
		c1.7-3.3,5.3-9.8,10.9-19.5l3.7-6.4c0.3-0.6,0.9-1.3,1.6-1.9c0.7-0.6,1.4-1,2.1-1.2c1.5-0.6,2.9-0.3,4.2,1c0.3,0.2,0.5,0.6,0.4,1.4
		c-0.1,0.8-0.3,1.6-0.6,2.4l-3,5.5c-8.9,16.9-13.9,26.5-14.9,28.7c-3.1,7-6.7,15.1-10.7,24.5l-8.4,19c-2.6,7.3-4.8,12.7-6.5,16.4
		c-1.3,3-3.2,6.3-5.7,10c-1,2.1-3.1,3.5-6.5,4.3c-0.8,0.2-2,0.2-3.5,0.2c-3,0-5.8-0.7-8.6-2.1c-2.7-1.4-4.8-3.3-6.3-5.7
		c-2-3.2-3.4-7.5-4.2-13.1c-0.2-1-0.2-2.3-0.2-4c0-4.4,0.9-10.3,2.7-17.6c3.3-14.4,8.9-30.9,16.6-49.4c0.2-0.6,0.3-1.2,0.5-1.7
		s0.3-1,0.5-1.4L898.1,268.4z"/>
	<path class="st0" d="M1047.4,353.2l2.5-5.5c1.3-2.4,2.6-5.1,3.7-8.1c9.3-23.7,17.7-45.7,25.3-65.8c1.3-3.5,2.2-6.2,2.7-8.1
		c0.3-0.8,0.8-2.1,1.4-3.8c0.6-1.7,1.1-3.2,1.6-4.5c1-2.8,3.1-4.3,6.5-4.3c2.1,0,3.2,0.9,3.2,2.6v0.7c-1,4.3-2.2,8.8-3.5,13.5
		c-1,2.7-3.4,9-7.2,19l-8.9,23.5c-0.5,1-0.9,2.1-1.2,3.4c-0.3,1.3-0.7,2.4-1,3.2c-0.2,0.6-0.4,1.5-0.6,2.6s-0.5,2.1-0.9,2.8
		l-1.5,4.7c-2.8,8.7-5.3,15.7-7.4,20.9c-1.2,3.2-3.5,6.8-7,10.9c-3.6,4.3-8.5,6.4-14.6,6.4c-1.5,0-2.7-0.1-3.5-0.2
		c-3.3-0.3-6.4-2.3-9.2-5.9c-2.8-4.6-4.7-9.9-5.7-15.9c-1.2-6.2-1.7-12.9-1.7-20.2c0-3.3,0.2-8.3,0.5-15c0.5-14.7,2.6-34.7,6.5-59.8
		l3.5-30.6v-8.8c-1.2,0.3-2.2,0.9-3,1.7s-1.4,1.3-1.7,1.7c-6,7.9-11.8,18-17.6,30.4c-3.1,7-6,14.2-8.7,21.6
		c-2.6,7.4-5.5,16.4-8.7,26.8c-2.6,9-5.5,17.1-8.4,24.2c-0.5,1.9-1.3,3.9-2.5,6.1c-1.2,2.1-2.4,4.2-3.7,6.3
		c-2.6,4.3-6.8,6.4-12.4,6.4c-2.3,0-4.5-0.4-6.6-1.2c-2.1-0.8-3.7-1.8-4.8-3.1c-5-6.2-8.3-12.7-9.9-19.7c-1.3-6.3-2-12.3-2-17.8
		c0-4,0.2-7.9,0.7-11.9c1-12.3,2.2-24.3,3.7-35.9l2.5-24c0-1.7,0.2-3.4,0.7-5c0.7-2.5,1.7-4.3,3-5.2c1.3-1,3.3-1.3,6-1
		c2.6,0,5.3,0.6,7.9,1.7c4.3,0.9,6.8,3.4,7.4,7.4c0.2,1.1,0.6,3.4,1.4,6.9c0.7,3.5,1,6.7,0.6,9.7c-0.2,7.6-0.7,19-1.7,34.2
		c-0.3,3.3-0.7,8-1,14c0,2.7-0.1,5.1-0.2,7.1c-0.2,2.1-0.3,3.8-0.5,5.2c-0.3,3-0.7,7.5-1,13.5c1-1.1,1.6-2.1,1.7-3.1l4.7-14.2
		c3-8.9,5.1-15.5,6.5-19.9c4.8-15.8,11.8-32.2,20.9-49.2c3.1-6,7.5-12.1,13.2-18.3c4.3-4.7,9.8-7.1,16.4-7.1c4.6,0,9,1.2,13,3.7
		c4.1,2.5,6.9,5.8,8.6,10.1c2.5,6.6,3.7,13.7,3.7,21.1c0,5.4-0.4,11.2-1.1,17.6c-0.7,6.3-1.5,12.5-2.4,18.5
		c-3.3,19-6.3,37.6-8.9,55.8c-0.7,4-1,8.4-1,13.3s0.3,9.3,1,13.3C1046.5,353.1,1046.9,353.2,1047.4,353.2z"/>
	<path class="st0" d="M1103,342.5c0.8-0.5,1.5-1,2.1-1.4c0.6-0.5,1.1-0.9,1.6-1.2c3.3-1.3,5.8-1.9,7.4-1.9c2,0,3.6,0.5,4.8,1.5
		c1.2,1,1.9,2.3,1.9,3.9c0,0.6-0.2,1.4-0.5,2.4c-1,5.1-4.4,8.5-10.2,10.4c-2.8,0.8-5.4,1.2-7.7,1.2c-8.9,0-15.8-3.6-20.6-10.9
		c-4.8-7.4-7.5-15-8.2-22.8c-0.2-9.3,1-21.8,3.5-37.3c3-17.6,7.8-36.1,14.4-55.6c1-3.3,2.4-6.7,4.2-10.2c1-2.8,3.3-4.4,7-4.7
		c5,0,9.4,1.1,13.4,3.3c2.8,1.4,4.2,3.4,4.2,5.9c0,0.9-0.1,1.7-0.2,2.1c-2,9.2-4.8,23.1-8.4,41.8c-5,22.5-7.9,41.9-8.9,58.2
		c-0.3,2.4-0.5,6-0.5,10.9c0,0.8,0.1,1.5,0.2,2.3C1102.6,341.2,1102.8,341.9,1103,342.5z M1109.7,184.4c0-5.4,1.5-12,4.5-19.7
		c0.7-1.4,1.5-2.4,2.6-3s2.7-0.8,4.8-0.8c4.6,0,8.8,1.4,12.4,4.3c1.5,0.8,2.2,2,2.2,3.6c0,1.3-0.2,2.3-0.5,3.1
		c-2.8,8.4-4.5,13.5-5,15.2c-0.5,1.4-0.7,2.8-0.7,4c0,2.1,0.7,4.8,2.2,8.3c0.2,0.5,0.4,1,0.6,1.5c0.2,0.6,0.4,1.1,0.4,1.8
		c0,0.6-0.2,1.2-0.7,1.7c-1,0.9-2.4,1.4-4.2,1.4h-1.7C1115.3,203.4,1109.7,196.3,1109.7,184.4z"/>
</g>
</svg>
