<?xml version="1.0" encoding="utf-8"?>
<!-- Generator: Adobe Illustrator 22.1.0, SVG Export Plug-In . SVG Version: 6.00 Build 0)  -->
<svg version="1.1" id="Ebene_2" xmlns="http://www.w3.org/2000/svg" xmlns:xlink="http://www.w3.org/1999/xlink" x="0px" y="0px"
	 viewBox="0 0 512 512" style="enable-background:new 0 0 512 512;" xml:space="preserve">
<style type="text/css">
	.st0{fill:#FFFFFF;stroke:#FFFFFF;stroke-width:10;stroke-miterlimit:10;}
</style>
<path class="st0" d="M61.2,336c0,0-3-90.8,132.1-135c10.9-15.6,32.1-73.4,57.6-59.1c-7.9,14.3-15.1,29.9-1.8,47.9
	c18.2,5.6,124.8,22.4,161.7,93.9c7.3,5,39.4,39.8,39.4,39.8s-52.7-37.3-54.5-37.3c-36.3-19.9-212,16.8-212,16.8s-1.2,8.1,33.9,8.1
	c-6.1,9.3-25.4,24.9-75.7,5c-15.1,7.5-53.9,38.6-90.3,44.2S61.2,336,61.2,336z"/>
<path class="st0" d="M150.3,306.8"/>
</svg>
