<?xml version="1.0" encoding="utf-8"?>
<!-- Generator: Adobe Illustrator 22.1.0, SVG Export Plug-In . SVG Version: 6.00 Build 0)  -->
<svg version="1.1" xmlns="http://www.w3.org/2000/svg" xmlns:xlink="http://www.w3.org/1999/xlink" x="0px" y="0px"
	 viewBox="0 0 64 64" style="enable-background:new 0 0 64 64;" xml:space="preserve">
<style type="text/css">
	.st0{fill:none;stroke:#F1F1F1;stroke-width:3;stroke-miterlimit:10;}
	.st1{display:none;}
	.st2{display:inline;fill:#1E1313;}
</style>
<g id="Ebene_1">
	<circle class="st0" cx="31.8" cy="33.1" r="10"/>
	<polygon class="st0" points="22.2,18.2 17.5,16 14.5,19.1 16.9,23.8 14.9,28.7 10,30.5 10,34.8 15.1,36.5 16.8,41.4 14.6,46.1 
		17.7,49.2 22.4,46.8 27.8,49.7 29.4,54.7 33.8,54.7 35.5,49.8 40.8,46.7 45.5,49.1 48.6,46 46.4,41.3 48.6,36.7 53.6,35.1 
		53.6,30.7 48.8,29 46.3,23.7 48.7,19 45.7,15.9 41,18.1 35.4,16 33.6,11.1 29.3,11.1 27.7,16.1 	"/>
</g>
<g id="Ebene_2" class="st1">
	<rect x="-0.2" class="st2" width="64" height="64"/>
</g>
</svg>
